<svg xmlns="http://www.w3.org/2000/svg" version="1.1" xmlns:xlink="http://www.w3.org/1999/xlink" xmlns:svgjs="http://svgjs.dev/svgjs" width="100%" height="100%" viewBox="0 0 1000 600"><rect width="1000" height="600" x="0" y="0" fill="white"/><g><rect width="333.3333333333333" height="333.3333333333333" rx="13.333333333333334" ry="13.333333333333334" y="277.1303462383187" fill="#b88746" transform="matrix(0.4903727815298078,0,0,0.49037278152980773,0,82.3740313905209)" x="254.90823364257812"/><path d="M291.37103063699504 371.3135869120856L391.2442293813151 371.3135869120856Q391.0101287103645 379.7412110663089 390.48340220072555 388.28588555600754Q389.95667569108656 396.80129746183735 388.90322267180863 405.43375970314247L388.90322267180863 405.43375970314247L383.43111948833723 405.43375970314247L374.7986572470321 382.25779327902836L328.85640057296746 382.25779327902836L328.85640057296746 438.09080330075784L363.21067403497506 438.09080330075784L371.43346010211656 422.52310868253977L376.7007251985061 422.52310868253977Q377.9590163048658 443.3580683971474 376.7007251985061 465.07090562782L376.7007251985061 465.07090562782L371.43346010211656 465.07090562782L363.21067403497506 449.0642722515695L328.85640057296746 449.0642722515695L328.85640057296746 507.85280324405085L377.3152394597516 507.85280324405085L387.6449315654489 482.5699307813809L392.9121966618385 482.5699307813809Q394.4045884391488 491.40723110976785 395.01910270039434 500.47863210910543Q395.6628795455086 509.52077052457423 395.2239407874761 518.7970096109937L395.2239407874761 518.7970096109937L291.37103063699504 518.7970096109937L291.37103063699504 512.681129582408Q298.7452017719404 509.3159324374924 308.6359551196053 507.6187025731002L308.6359551196053 507.6187025731002L308.6359551196053 382.6967320370608Q304.42214304249364 381.84811710486474 300.00349287830016 380.47277566302967Q295.5848427141067 379.0974342211946 291.37103063699504 377.4294669406712L291.37103063699504 377.4294669406712L291.37103063699504 371.3135869120856ZM454.65624862507184 512.681129582408L454.65624862507184 518.7970096109937L407.8653770188111 518.7970096109937L407.8653770188111 512.681129582408Q415.4736488247072 509.3159324374924 423.0526580467344 507.6187025731002L423.0526580467344 507.6187025731002L476.3398232718756 368.7970046993661L482.4557033004612 368.7970046993661L535.7721311094713 507.6187025731002Q539.985943186583 508.46731750529636 544.0827049282193 509.52077052457423Q548.2087292537244 510.57422354385216 551.7787644857218 512.681129582408L551.7787644857218 512.681129582408L551.7787644857218 518.7970096109937L497.84782241546634 518.7970096109937L497.84782241546634 512.681129582408Q502.061634492578 511.0131623018847 506.48028465677146 509.72560861165607Q510.89893482096494 508.46731750529636 515.1127468980766 507.6187025731002L515.1127468980766 507.6187025731002L500.8033433862183 469.0798796178499L450.44243654796014 469.0798796178499L436.54270921026546 507.6187025731002Q445.3800095386524 508.9062562633288 454.65624862507184 512.681129582408L454.65624862507184 512.681129582408ZM470.8677200884042 413.8613838573658L454.65624862507184 458.10641066703823L497.2040455703521 458.10641066703823L480.5536353489872 413.4517076832022L476.57392394282624 395.3381682683958L476.1349851847938 395.3381682683958L470.8677200884042 413.8613838573658Z " fill="#191919" transform="matrix(0.4903727815298078,0,0,0.49037278152980773,0,82.3740313905209)"/><path d="M671.57490330058 378.99700413170126L764.6567214823981 378.99700413170126Q764.4385396642164 386.8515495862467 763.9476305733073 394.815185949883Q763.4567214823982 402.7515495862467 762.47490330058 410.7970041317012L762.47490330058 410.7970041317012L757.37490330058 410.7970041317012L749.3294487551254 389.1970041317012L706.5112669369437 389.1970041317012L706.5112669369437 441.23336776806485L738.5294487551255 441.23336776806485L746.1930851187618 426.72427685897395L751.1021760278527 426.72427685897395Q752.27490330058 446.1424586771558 751.1021760278527 466.37882231351944L751.1021760278527 466.37882231351944L746.1930851187618 466.37882231351944L738.5294487551255 451.4606404953376L706.5112669369437 451.4606404953376L706.5112669369437 506.2515495862467L751.67490330058 506.2515495862467L761.3021760278527 482.6879132226103L766.2112669369436 482.6879132226103Q767.6021760278527 490.92427685897394 768.17490330058 499.37882231351944Q768.7749033005799 507.8060950407921 768.365812391489 516.4515495862466L768.365812391489 516.4515495862466L671.57490330058 516.4515495862466L671.57490330058 510.75154958624665Q678.4476305733073 507.615185949883 687.665812391489 506.03336776806486L687.665812391489 506.03336776806486L687.665812391489 389.6060950407921Q683.7385396642164 388.815185949883 679.6203578460345 387.53336776806486Q675.5021760278528 386.25154958624665 671.57490330058 384.6970041317012L671.57490330058 384.6970041317012L671.57490330058 378.99700413170126ZM840.2567214823981 368.7970041317012L840.2567214823981 368.7970041317012Q842.0021760278527 368.7970041317012 844.37490330058 368.9879132226103Q846.7203578460345 369.1788223135194 849.2839942096708 369.4788223135194Q851.8203578460345 369.7788223135194 854.1930851187618 370.2697314044285Q856.5385396642163 370.7606404953376 858.3112669369436 371.3333677680648L858.3112669369436 371.3333677680648Q857.7112669369436 377.8242768589739 856.6476305733073 383.41518594988304Q855.5567214823982 389.00609504079216 854.0021760278527 393.53336776806486L854.0021760278527 393.53336776806486L849.0930851187618 393.53336776806486L840.4476305733073 376.6515495862467Q834.7476305733072 376.6515495862467 830.7112669369436 377.8242768589739Q826.7021760278527 378.99700413170126 824.0567214823982 382.3242768589739Q821.3839942096708 385.6788223135194 820.1294487551254 391.95154958624664Q818.8476305733072 398.25154958624665 818.8476305733072 408.45154958624664L818.8476305733072 408.45154958624664L818.8476305733072 418.2697314044285L841.4294487551255 418.2697314044285L841.4294487551255 428.0879132226103L818.8476305733072 428.0879132226103L818.8476305733072 506.8242768589739Q829.0476305733073 507.99700413170126 837.6930851187618 511.54245867715576L837.6930851187618 511.54245867715576L837.6930851187618 516.4515495862466L788.2203578460345 516.4515495862466L788.2203578460345 511.54245867715576Q794.3021760278527 507.99700413170126 801.17490330058 506.8242768589739L801.17490330058 506.8242768589739L801.17490330058 428.0879132226103L786.2567214823981 428.0879132226103L786.2567214823981 422.9879132226103Q793.1294487551254 418.6515495862467 801.17490330058 416.4970041317012L801.17490330058 416.4970041317012L801.17490330058 409.62427685897393Q801.17490330058 397.46064049533754 804.1203578460345 389.49700413170126Q807.0658123914891 381.56064049533757 812.3567214823981 376.92427685897394Q817.67490330058 372.315185949883 824.8203578460345 370.54245867715576Q831.9930851187618 368.7970041317012 840.2567214823981 368.7970041317012ZM907.4021760278528 368.7970041317012L907.4021760278528 368.7970041317012Q909.17490330058 368.7970041317012 911.5203578460345 368.9879132226103Q913.8930851187617 369.1788223135194 916.4294487551255 369.4788223135194Q918.9930851187618 369.7788223135194 921.3385396642163 370.2697314044285Q923.7112669369436 370.7606404953376 925.4567214823982 371.3333677680648L925.4567214823982 371.3333677680648Q924.8839942096708 377.8242768589739 923.7930851187617 383.41518594988304Q922.7294487551254 389.00609504079216 921.1476305733072 393.53336776806486L921.1476305733072 393.53336776806486L916.2385396642163 393.53336776806486L907.5930851187618 376.6515495862467Q901.8930851187619 376.6515495862467 897.8839942096708 377.8242768589739Q893.8476305733072 378.99700413170126 891.2021760278527 382.3242768589739Q888.5567214823982 385.6788223135194 887.27490330058 391.95154958624664Q885.9930851187618 398.25154958624665 885.9930851187618 408.45154958624664L885.9930851187618 408.45154958624664L885.9930851187618 418.2697314044285L908.57490330058 418.2697314044285L908.57490330058 428.0879132226103L885.9930851187618 428.0879132226103L885.9930851187618 506.8242768589739Q896.2203578460345 507.99700413170126 904.8385396642163 511.54245867715576L904.8385396642163 511.54245867715576L904.8385396642163 516.4515495862466L855.365812391489 516.4515495862466L855.365812391489 511.54245867715576Q861.4476305733073 507.99700413170126 868.3203578460345 506.8242768589739L868.3203578460345 506.8242768589739L868.3203578460345 428.0879132226103L853.4021760278528 428.0879132226103L853.4021760278528 422.9879132226103Q860.2749033005799 418.6515495862467 868.3203578460345 416.4970041317012L868.3203578460345 416.4970041317012L868.3203578460345 409.62427685897393Q868.3203578460345 397.46064049533754 871.265812391489 389.49700413170126Q874.2112669369436 381.56064049533757 879.5294487551254 376.92427685897394Q884.8203578460345 372.315185949883 891.9930851187618 370.54245867715576Q899.1658123914891 368.7970041317012 907.4021760278528 368.7970041317012ZM994.97490330058 490.73336776806485L994.97490330058 490.73336776806485Q994.97490330058 495.04245867715576 995.1658123914891 498.1788223135194Q995.3839942096707 501.3424586771558 995.57490330058 504.8606404953376L995.57490330058 504.8606404953376L1009.1294487551254 506.8242768589739L1009.1294487551254 510.94245867715574Q1004.2203578460345 513.5060950407922 998.2203578460345 515.4697314044286Q992.2203578460345 517.4333677680648 986.7385396642163 518.415185949883L986.7385396642163 518.415185949883L981.8294487551253 518.415185949883Q979.865812391489 513.8879132226103 979.4567214823982 508.4879132226103Q979.07490330058 503.08791322261027 978.8839942096708 496.624276858974L978.8839942096708 496.624276858974L977.9021760278526 496.624276858974Q977.1112669369436 500.55154958624667 974.8476305733072 504.56064049533757Q972.5839942096708 508.5970041317012 968.9567214823982 511.7333677680649Q965.3294487551253 514.8697314044284 960.4203578460346 516.8333677680648Q955.5112669369436 518.7970041317012 949.2385396642163 518.7970041317012L949.2385396642163 518.7970041317012Q937.2385396642163 518.7970041317012 929.6839942096709 511.54245867715576Q922.1294487551254 504.2879132226103 922.1294487551254 492.50609504079216L922.1294487551254 492.50609504079216Q922.1294487551254 483.45154958624664 925.7567214823981 477.6697314044285Q929.383994209671 471.8879132226103 936.47490330058 468.53336776806486Q943.5385396642163 465.2060950407921 953.9294487551255 463.73336776806485Q964.3476305733072 462.26064049533755 978.0930851187618 461.4697314044285L978.0930851187618 461.4697314044285Q978.8839942096708 453.01518594988306 978.5839942096708 446.25154958624665Q978.2839942096708 439.4879132226103 976.4294487551255 434.6606404953376Q974.5476305733072 429.8606404953376 970.9203578460346 427.21518594988305Q967.2930851187617 424.54245867715576 961.4021760278526 424.54245867715576L961.4021760278526 424.54245867715576Q958.6476305733072 424.54245867715576 955.2112669369436 424.8424586771558Q951.7749033005799 425.1424586771558 948.4476305733073 426.50609504079216L948.4476305733073 426.50609504079216L939.2021760278527 450.06973140442847L934.1021760278527 450.06973140442847Q932.1385396642163 444.1788223135194 930.6658123914891 437.90609504079214Q929.1930851187618 431.6333677680649 928.8112669369435 425.52427685897396L928.8112669369435 425.52427685897396Q936.2567214823981 421.02427685897396 945.3930851187617 418.4606404953376Q954.5294487551254 415.92427685897394 965.7112669369436 415.92427685897394L965.7112669369436 415.92427685897394Q975.7476305733072 415.92427685897394 981.7203578460345 418.7606404953376Q987.7203578460345 421.5970041317012 990.8567214823981 426.124276858974Q993.9930851187618 430.6515495862467 994.97490330058 436.1333677680649Q995.9567214823982 441.6424586771558 995.9567214823982 447.12427685897393L995.9567214823982 447.12427685897393Q995.9567214823982 458.90609504079214 995.4658123914891 469.815185949883Q994.97490330058 480.72427685897395 994.97490330058 490.73336776806485ZM957.0930851187618 506.6333677680649L957.0930851187618 506.6333677680649Q962.0021760278527 506.6333677680649 965.7112669369436 504.6697314044285Q969.4476305733073 502.7060950407921 972.0112669369436 499.95154958624664Q974.5476305733072 497.1970041317012 976.1294487551255 494.3606404953376Q977.7112669369436 491.52427685897396 978.2839942096708 489.56064049533757L978.2839942096708 489.56064049533757L978.2839942096708 468.94245867715574Q966.9112669369437 468.94245867715574 959.6294487551254 470.1151859498831Q952.37490330058 471.2879132226103 948.2567214823981 473.8515495862467Q944.1112669369436 476.38791322261034 942.5567214823981 480.23336776806485Q940.97490330058 484.05154958624667 940.97490330058 488.9606404953376L940.97490330058 488.9606404953376Q940.97490330058 497.41518594988304 945.3112669369435 502.02427685897396Q949.6203578460345 506.6333677680649 957.0930851187618 506.6333677680649ZM1125.5567214823982 511.54245867715576L1125.5567214823982 516.4515495862466L1083.1476305733072 516.4515495862466L1083.1476305733072 511.54245867715576Q1087.8658123914888 508.9788223135194 1094.9294487551253 506.8242768589739L1094.9294487551253 506.8242768589739L1094.9294487551253 460.86973140442853Q1094.9294487551253 445.56973140442847 1090.6203578460345 436.815185949883Q1086.2839942096707 428.0879132226103 1074.9112669369435 428.0879132226103L1074.9112669369435 428.0879132226103Q1069.7839942096707 428.0879132226103 1065.665812391489 429.94245867715574Q1061.5476305733073 431.8242768589739 1058.2203578460344 434.7697314044285Q1054.865812391489 437.71518594988305 1052.5203578460346 441.53336776806486Q1050.1476305733072 445.37882231351944 1048.97490330058 449.4970041317012L1048.97490330058 449.4970041317012L1048.97490330058 506.8242768589739Q1052.1112669369436 507.615185949883 1054.97490330058 508.5970041317012Q1057.8112669369434 509.57882231351937 1060.565812391489 511.54245867715576L1060.565812391489 511.54245867715576L1060.565812391489 516.4515495862466L1018.3476305733072 516.4515495862466L1018.3476305733072 511.54245867715576Q1024.4294487551253 508.40609504079214 1031.3021760278527 506.8242768589739L1031.3021760278527 506.8242768589739L1031.3021760278527 382.54245867715576L1016.383994209671 380.9606404953376L1016.383994209671 375.8606404953376Q1022.0839942096709 373.4879132226103 1029.6385396642163 371.74245867715575Q1037.1930851187617 369.9697314044285 1044.065812391489 368.7970041317012L1044.065812391489 368.7970041317012L1048.97490330058 368.7970041317012L1048.97490330058 438.0970041317012L1049.165812391489 438.0970041317012Q1053.3112669369434 428.8788223135194 1061.0567214823982 422.3879132226103Q1068.8021760278525 415.92427685897394 1079.8203578460343 415.92427685897394L1079.8203578460343 415.92427685897394Q1087.67490330058 415.92427685897394 1093.8385396642161 417.7788223135194Q1100.0294487551255 419.6333677680649 1104.1476305733072 424.3515495862467Q1108.2930851187616 429.06973140442847 1110.4476305733074 437.03336776806486Q1112.6021760278527 444.9697314044285 1112.6021760278527 457.1606404953376L1112.6021760278527 457.1606404953376L1112.6021760278527 506.8242768589739Q1115.9294487551256 507.615185949883 1119.2839942096707 508.5970041317012Q1122.6112669369436 509.57882231351937 1125.5567214823982 511.54245867715576L1125.5567214823982 511.54245867715576ZM1142.847630573307 467.3606404953376L1142.847630573307 454.9788223135194L1198.2112669369435 454.9788223135194L1198.2112669369435 467.3606404953376L1142.847630573307 467.3606404953376ZM1248.0930851187618 510.75154958624665L1248.0930851187618 516.4515495862466L1204.5112669369437 516.4515495862466L1204.5112669369437 510.75154958624665Q1211.57490330058 507.615185949883 1218.6385396642163 506.03336776806486L1218.6385396642163 506.03336776806486L1268.3294487551254 376.6515495862467L1274.0021760278526 376.6515495862467L1323.6930851187617 506.03336776806486Q1327.6203578460345 506.8242768589739 1331.438539664216 507.8060950407921Q1335.2839942096707 508.7879132226103 1338.6112669369436 510.75154958624665L1338.6112669369436 510.75154958624665L1338.6112669369436 516.4515495862466L1288.347630573307 516.4515495862466L1288.347630573307 510.75154958624665Q1292.2749033005798 509.19700413170125 1296.3930851187615 507.99700413170126Q1300.5112669369437 506.8242768589739 1304.438539664216 506.03336776806486L1304.438539664216 506.03336776806486L1291.1021760278527 470.1151859498831L1244.165812391489 470.1151859498831L1231.2112669369435 506.03336776806486Q1239.4476305733072 507.23336776806485 1248.0930851187618 510.75154958624665L1248.0930851187618 510.75154958624665ZM1263.2021760278526 418.6515495862467L1248.0930851187618 459.88791322261034L1287.747630573307 459.88791322261034L1272.256721482398 418.2697314044285L1268.5203578460346 401.38791322261034L1268.1112669369436 401.38791322261034L1263.2021760278526 418.6515495862467ZM1451.9294487551256 511.54245867715576L1451.9294487551256 516.4515495862466L1409.7112669369435 516.4515495862466L1409.7112669369435 511.54245867715576Q1415.0021760278523 508.7879132226103 1421.2749033005798 506.8242768589739L1421.2749033005798 506.8242768589739L1421.2749033005798 460.2970041317012Q1421.2749033005798 445.37882231351944 1416.9658123914887 436.73336776806485Q1412.656721482398 428.0879132226103 1401.256721482398 428.0879132226103L1401.256721482398 428.0879132226103Q1396.347630573307 428.0879132226103 1392.1203578460345 429.8606404953376Q1387.8930851187615 431.6333677680649 1384.67490330058 434.6606404953376Q1381.4294487551256 437.71518594988305 1379.0567214823982 441.53336776806486Q1376.7112669369435 445.37882231351944 1375.347630573307 449.4970041317012L1375.347630573307 449.4970041317012L1375.347630573307 506.8242768589739Q1381.4294487551256 507.99700413170126 1387.1294487551254 511.54245867715576L1387.1294487551254 511.54245867715576L1387.1294487551254 516.4515495862466L1344.6930851187617 516.4515495862466L1344.6930851187617 511.54245867715576Q1349.6021760278527 508.9788223135194 1357.67490330058 506.8242768589739L1357.67490330058 506.8242768589739L1357.67490330058 429.6697314044285L1344.6930851187617 428.0879132226103L1344.6930851187617 422.9879132226103Q1349.8203578460343 420.8333677680648 1356.47490330058 419.06064049533757Q1363.156721482398 417.2879132226103 1370.438539664216 415.92427685897394L1370.438539664216 415.92427685897394L1375.347630573307 415.92427685897394L1375.347630573307 437.90609504079214L1375.5385396642164 437.90609504079214Q1379.656721482398 428.8788223135194 1387.4021760278524 422.3879132226103Q1395.17490330058 415.92427685897394 1406.165812391489 415.92427685897394L1406.165812391489 415.92427685897394Q1414.0203578460346 415.92427685897394 1420.2112669369435 417.7788223135194Q1426.4021760278524 419.6333677680649 1430.5203578460346 424.3515495862467Q1434.6385396642163 429.06973140442847 1436.7930851187616 437.03336776806486Q1438.947630573307 444.9697314044285 1438.947630573307 457.1606404953376L1438.947630573307 457.1606404953376L1438.947630573307 506.8242768589739Q1446.8021760278525 508.215185949883 1451.9294487551256 511.54245867715576L1451.9294487551256 511.54245867715576ZM1568.5476305733073 511.54245867715576L1568.5476305733073 516.4515495862466L1526.3294487551252 516.4515495862466L1526.3294487551252 511.54245867715576Q1531.6476305733072 508.7879132226103 1537.9203578460342 506.8242768589739L1537.9203578460342 506.8242768589739L1537.9203578460342 460.2970041317012Q1537.9203578460342 445.37882231351944 1533.6112669369436 436.73336776806485Q1529.2749033005798 428.0879132226103 1517.9021760278524 428.0879132226103L1517.9021760278524 428.0879132226103Q1512.9930851187619 428.0879132226103 1508.765812391489 429.8606404953376Q1504.5385396642164 431.6333677680649 1501.2930851187616 434.6606404953376Q1498.07490330058 437.71518594988305 1495.7021760278526 441.53336776806486Q1493.356721482398 445.37882231351944 1491.9658123914887 449.4970041317012L1491.9658123914887 449.4970041317012L1491.9658123914887 506.8242768589739Q1498.07490330058 507.99700413170126 1503.747630573307 511.54245867715576L1503.747630573307 511.54245867715576L1503.747630573307 516.4515495862466L1461.3385396642161 516.4515495862466L1461.3385396642161 511.54245867715576Q1466.247630573307 508.9788223135194 1474.2930851187616 506.8242768589739L1474.2930851187616 506.8242768589739L1474.2930851187616 429.6697314044285L1461.3385396642161 428.0879132226103L1461.3385396642161 422.9879132226103Q1466.438539664216 420.8333677680648 1473.1203578460345 419.06064049533757Q1479.8021760278525 417.2879132226103 1487.0567214823982 415.92427685897394L1487.0567214823982 415.92427685897394L1491.9658123914887 415.92427685897394L1491.9658123914887 437.90609504079214L1492.1839942096708 437.90609504079214Q1496.3021760278525 428.8788223135194 1504.0476305733068 422.3879132226103Q1511.8203578460343 415.92427685897394 1522.8112669369434 415.92427685897394L1522.8112669369434 415.92427685897394Q1530.665812391489 415.92427685897394 1536.856721482398 417.7788223135194Q1543.0203578460346 419.6333677680649 1547.165812391489 424.3515495862467Q1551.2839942096707 429.06973140442847 1553.438539664216 437.03336776806486Q1555.5930851187618 444.9697314044285 1555.5930851187618 457.1606404953376L1555.5930851187618 457.1606404953376L1555.5930851187618 506.8242768589739Q1563.4476305733074 508.215185949883 1568.5476305733073 511.54245867715576L1568.5476305733073 511.54245867715576ZM1652.4112669369438 490.73336776806485L1652.4112669369438 490.73336776806485Q1652.4112669369438 495.04245867715576 1652.6021760278527 498.1788223135194Q1652.7930851187616 501.3424586771558 1652.9839942096705 504.8606404953376L1652.9839942096705 504.8606404953376L1666.5385396642164 506.8242768589739L1666.5385396642164 510.94245867715574Q1661.6294487551254 513.5060950407922 1655.656721482398 515.4697314044286Q1649.656721482398 517.4333677680648 1644.1476305733072 518.415185949883L1644.1476305733072 518.415185949883L1639.2385396642162 518.415185949883Q1637.2749033005798 513.8879132226103 1636.8930851187615 508.4879132226103Q1636.5112669369432 503.08791322261027 1636.2930851187616 496.624276858974L1636.2930851187616 496.624276858974L1635.3112669369434 496.624276858974Q1634.5476305733073 500.55154958624667 1632.2839942096707 504.56064049533757Q1630.0203578460346 508.5970041317012 1626.3930851187615 511.7333677680649Q1622.765812391489 514.8697314044284 1617.856721482398 516.8333677680648Q1612.947630573307 518.7970041317012 1606.6476305733072 518.7970041317012L1606.6476305733072 518.7970041317012Q1594.67490330058 518.7970041317012 1587.1203578460345 511.54245867715576Q1579.565812391489 504.2879132226103 1579.565812391489 492.50609504079216L1579.565812391489 492.50609504079216Q1579.565812391489 483.45154958624664 1583.1930851187617 477.6697314044285Q1586.8203578460343 471.8879132226103 1593.8839942096706 468.53336776806486Q1600.9476305733074 465.2060950407921 1611.3658123914888 463.73336776806485Q1621.7839942096707 462.26064049533755 1635.5294487551255 461.4697314044285L1635.5294487551255 461.4697314044285Q1636.2930851187616 453.01518594988306 1636.0203578460346 446.25154958624665Q1635.7203578460344 439.4879132226103 1633.8385396642161 434.6606404953376Q1631.9839942096705 429.8606404953376 1628.356721482398 427.21518594988305Q1624.7294487551253 424.54245867715576 1618.8385396642161 424.54245867715576L1618.8385396642161 424.54245867715576Q1616.083994209671 424.54245867715576 1612.6476305733072 424.8424586771558Q1609.2112669369435 425.1424586771558 1605.856721482398 426.50609504079216L1605.856721482398 426.50609504079216L1596.6385396642163 450.06973140442847L1591.5385396642164 450.06973140442847Q1589.57490330058 444.1788223135194 1588.1021760278527 437.90609504079214Q1586.6294487551254 431.6333677680649 1586.2203578460344 425.52427685897396L1586.2203578460344 425.52427685897396Q1593.6930851187617 421.02427685897396 1602.8294487551252 418.4606404953376Q1611.9658123914887 415.92427685897394 1623.1476305733072 415.92427685897394L1623.1476305733072 415.92427685897394Q1633.156721482398 415.92427685897394 1639.156721482398 418.7606404953376Q1645.1294487551254 421.5970041317012 1648.2930851187616 426.124276858974Q1651.4294487551251 430.6515495862467 1652.4112669369438 436.1333677680649Q1653.3930851187615 441.6424586771558 1653.3930851187615 447.12427685897393L1653.3930851187615 447.12427685897393Q1653.3930851187615 458.90609504079214 1652.9021760278524 469.815185949883Q1652.4112669369438 480.72427685897395 1652.4112669369438 490.73336776806485ZM1614.5021760278523 506.6333677680649L1614.5021760278523 506.6333677680649Q1619.4112669369433 506.6333677680649 1623.1476305733072 504.6697314044285Q1626.8839942096706 502.7060950407921 1629.4203578460342 499.95154958624664Q1631.9839942096705 497.1970041317012 1633.565812391489 494.3606404953376Q1635.1203578460345 491.52427685897396 1635.7203578460344 489.56064049533757L1635.7203578460344 489.56064049533757L1635.7203578460344 468.94245867715574Q1624.3203578460343 468.94245867715574 1617.065812391489 470.1151859498831Q1609.7839942096707 471.2879132226103 1605.665812391489 473.8515495862467Q1601.5476305733068 476.38791322261034 1599.9658123914887 480.23336776806485Q1598.4112669369438 484.05154958624667 1598.4112669369438 488.9606404953376L1598.4112669369438 488.9606404953376Q1598.4112669369438 497.41518594988304 1602.7203578460344 502.02427685897396Q1607.0567214823982 506.6333677680649 1614.5021760278523 506.6333677680649ZM1784.356721482398 511.54245867715576L1784.356721482398 516.4515495862466L1742.1385396642163 516.4515495862466L1742.1385396642163 511.54245867715576Q1747.4567214823978 508.7879132226103 1753.7294487551253 506.8242768589739L1753.7294487551253 506.8242768589739L1753.7294487551253 460.2970041317012Q1753.7294487551253 445.37882231351944 1749.4203578460342 436.73336776806485Q1745.0839942096704 428.0879132226103 1733.7112669369435 428.0879132226103L1733.7112669369435 428.0879132226103Q1728.8021760278525 428.0879132226103 1724.57490330058 429.8606404953376Q1720.347630573307 431.6333677680649 1717.1021760278527 434.6606404953376Q1713.856721482398 437.71518594988305 1711.5112669369432 441.53336776806486Q1709.165812391489 445.37882231351944 1707.7749033005798 449.4970041317012L1707.7749033005798 449.4970041317012L1707.7749033005798 506.8242768589739Q1713.856721482398 507.99700413170126 1719.5567214823982 511.54245867715576L1719.5567214823982 511.54245867715576L1719.5567214823982 516.4515495862466L1677.1476305733072 516.4515495862466L1677.1476305733072 511.54245867715576Q1682.0567214823982 508.9788223135194 1690.1021760278527 506.8242768589739L1690.1021760278527 506.8242768589739L1690.1021760278527 429.6697314044285L1677.1476305733072 428.0879132226103L1677.1476305733072 422.9879132226103Q1682.247630573307 420.8333677680648 1688.9294487551251 419.06064049533757Q1695.6112669369436 417.2879132226103 1702.8658123914888 415.92427685897394L1702.8658123914888 415.92427685897394L1707.7749033005798 415.92427685897394L1707.7749033005798 437.90609504079214L1707.9658123914892 437.90609504079214Q1712.1112669369436 428.8788223135194 1719.856721482398 422.3879132226103Q1727.6021760278527 415.92427685897394 1738.6203578460345 415.92427685897394L1738.6203578460345 415.92427685897394Q1746.4749033005796 415.92427685897394 1752.6385396642163 417.7788223135194Q1758.8294487551252 419.6333677680649 1762.947630573307 424.3515495862467Q1767.0930851187613 429.06973140442847 1769.247630573307 437.03336776806486Q1771.4021760278524 444.9697314044285 1771.4021760278524 457.1606404953376L1771.4021760278524 457.1606404953376L1771.4021760278524 506.8242768589739Q1779.256721482398 508.215185949883 1784.356721482398 511.54245867715576L1784.356721482398 511.54245867715576Z " fill="#b88746" transform="matrix(0.4903727815298078,0,0,0.49037278152980773,0,82.3740313905209)"/></g></svg>